<svg viewBox="0 0 48 48" xmlns="http://www.w3.org/2000/svg"><path d="M23.993 15.872l1.016-.889a7.313 7.313 0 014.853-1.834c2.032 0 4.035.832 5.489 2.455a7.314 7.314 0 01-.339 10.06l-9.828 8.735a1.795 1.795 0 01-2.382 0l-9.814-8.735c-2.751-2.695-2.935-7.125-.339-10.06a7.337 7.337 0 015.489-2.455 7.34 7.34 0 014.853 1.834l1.002.889" class="product__icon-like"/><path d="M23.993 15.872l1.016-.889a7.313 7.313 0 014.853-1.834c2.032 0 4.035.832 5.489 2.455a7.314 7.314 0 01-.339 10.06l-9.828 8.735a1.795 1.795 0 01-2.382 0l-9.814-8.735c-2.751-2.695-2.935-7.125-.339-10.06a7.337 7.337 0 015.489-2.455 7.34 7.34 0 014.853 1.834l1.002.889" fill="none" stroke="#303030" stroke-width=".7" stroke-linecap="round" stroke-linejoin="round" stroke-miterlimit="10"/><path d="M13.98 19.686a5.166 5.166 0 011.164-2.237 5.205 5.205 0 013.893-1.742m-4.48 7.825a5.156 5.156 0 01-.61-1.58" fill="none" stroke="#303030" stroke-width=".7" stroke-linecap="round" stroke-linejoin="round" stroke-miterlimit="10"/></svg>