<?xml version="1.0" encoding="utf-8"?><svg viewBox="0 0 655.359 655.359" xmlns="http://www.w3.org/2000/svg" xmlns:xlink="http://www.w3.org/1999/xlink"><style>:root>svg{display:none}:root>svg:target{display:block}</style><svg id="icon-basket" version="1.1" viewBox="0 0 64 64" xml:space="preserve" xmlns="http://www.w3.org/2000/svg"><style>.ast0{fill:#134563}</style><g id="aIcon-Trash" transform="translate(232 228)"><path class="ast0" id="aFill-6" d="M-207.5-205.1h3v24h-3z"/><path class="ast0" id="aFill-7" d="M-201.5-205.1h3v24h-3z"/><path class="ast0" id="aFill-8" d="M-195.5-205.1h3v24h-3z"/><path class="ast0" id="aFill-9" d="M-219.5-214.1h39v3h-39z"/><path class="ast0" d="M-192.6-212.6h-2.8v-3c0-.9-.7-1.6-1.6-1.6h-6c-.9 0-1.6.7-1.6 1.6v3h-2.8v-3c0-2.4 2-4.4 4.4-4.4h6c2.4 0 4.4 2 4.4 4.4v3" id="aFill-10"/><path class="ast0" d="M-191-172.1h-18c-2.4 0-4.5-2-4.7-4.4l-2.8-36 3-.2 2.8 36c.1.9.9 1.6 1.7 1.6h18c.9 0 1.7-.8 1.7-1.6l2.8-36 3 .2-2.8 36c-.2 2.5-2.3 4.4-4.7 4.4" id="aFill-11"/></g></svg><svg fill="#fff" viewBox="0 0 510 510" id="icon-cart" xmlns="http://www.w3.org/2000/svg"><path d="M153 408c-28.05 0-51 22.95-51 51s22.95 51 51 51 51-22.95 51-51-22.95-51-51-51zM0 0v51h51l91.8 193.8-35.7 61.2c-2.55 7.65-5.1 17.85-5.1 25.5 0 28.05 22.95 51 51 51h306v-51H163.2c-2.55 0-5.1-2.55-5.1-5.1v-2.551l22.95-43.35h188.7c20.4 0 35.7-10.2 43.35-25.5L504.9 89.25c5.1-5.1 5.1-7.65 5.1-12.75 0-15.3-10.2-25.5-25.5-25.5H107.1L84.15 0H0zm408 408c-28.05 0-51 22.95-51 51s22.95 51 51 51 51-22.95 51-51-22.95-51-51-51z"/></svg><svg viewBox="0 0 6.827 6.827" shape-rendering="geometricPrecision" text-rendering="geometricPrecision" image-rendering="optimizeQuality" fill-rule="evenodd" clip-rule="evenodd" id="icon-close" xmlns="http://www.w3.org/2000/svg"><defs><style>.cfil0{fill:#0a93e2;fill-rule:nonzero}</style></defs><g id="cLayer_x0020_1"><path class="cfil0" d="M5.91 1.218a.213.213 0 00-.3-.302L.915 5.609a.213.213 0 00.301.302L5.91 1.218z"/><path class="cfil0" d="M1.218.916a.213.213 0 00-.302.301l4.693 4.694a.213.213 0 00.302-.302L1.218.916z"/></g><path fill="none" d="M0 0h6.827v6.827H0z"/></svg><svg viewBox="0 0 24 24" id="icon-fill" xmlns="http://www.w3.org/2000/svg"><path d="M16.56 8.94L7.62 0 6.21 1.41l2.38 2.38-5.15 5.15a1.49 1.49 0 000 2.12l5.5 5.5c.29.29.68.44 1.06.44s.77-.15 1.06-.44l5.5-5.5c.59-.58.59-1.53 0-2.12zM5.21 10L10 5.21 14.79 10H5.21zM19 11.5s-2 2.17-2 3.5c0 1.1.9 2 2 2s2-.9 2-2c0-1.33-2-3.5-2-3.5z" fill="#e9ba42"/></svg><svg viewBox="0 0 48 48" id="icon-like" xmlns="http://www.w3.org/2000/svg"><path d="M23.993 15.872l1.016-.889a7.313 7.313 0 014.853-1.834c2.032 0 4.035.832 5.489 2.455a7.314 7.314 0 01-.339 10.06l-9.828 8.735a1.795 1.795 0 01-2.382 0l-9.814-8.735c-2.751-2.695-2.935-7.125-.339-10.06a7.337 7.337 0 015.489-2.455 7.34 7.34 0 014.853 1.834l1.002.889" class="eproduct__icon-like"/><path d="M23.993 15.872l1.016-.889a7.313 7.313 0 014.853-1.834c2.032 0 4.035.832 5.489 2.455a7.314 7.314 0 01-.339 10.06l-9.828 8.735a1.795 1.795 0 01-2.382 0l-9.814-8.735c-2.751-2.695-2.935-7.125-.339-10.06a7.337 7.337 0 015.489-2.455 7.34 7.34 0 014.853 1.834l1.002.889" fill="none" stroke="#303030" stroke-width=".7" stroke-linecap="round" stroke-linejoin="round" stroke-miterlimit="10"/><path d="M13.98 19.686a5.166 5.166 0 011.164-2.237 5.205 5.205 0 013.893-1.742m-4.48 7.825a5.156 5.156 0 01-.61-1.58" fill="none" stroke="#303030" stroke-width=".7" stroke-linecap="round" stroke-linejoin="round" stroke-miterlimit="10"/></svg><svg viewBox="0 0 24 24" id="icon-pig" xmlns="http://www.w3.org/2000/svg"><path d="M20 12c0-3.31-3.58-6-8-6-.85 0-1.66.1-2.43.28L7 5v2.32C5.5 8.22 4.45 9.5 4.12 11H2v4h3.08c.5.65 1.15 1.22 1.92 1.68V20h2v-2.44c.93.28 1.94.44 3 .44s2.07-.16 3-.44V20h2v-3.32c1.15-.68 2.03-1.62 2.54-2.68H22v-2h-2M7 11c-.55 0-1-.45-1-1s.45-1 1-1 1 .45 1 1-.45 1-1 1z"/></svg><svg viewBox="0 0 20 20" id="icon-review" xmlns="http://www.w3.org/2000/svg"><g fill="none" fill-rule="evenodd"><path d="M-2-2h24v24H-2z"/><path d="M18 0H2C.9 0 0 .9 0 2v18l4-4h14c1.1 0 2-.9 2-2V2c0-1.1-.9-2-2-2zM4 12V9.53l6.88-6.88c.2-.2.51-.2.71 0l1.77 1.77c.2.2.2.51 0 .71L6.47 12H4zm11 0H8.5l2-2H15c.55 0 1 .45 1 1s-.45 1-1 1z" fill="#1D1D1D"/></g></svg></svg>